# xmcd
#
# Track frame offsets:
#	150
#	13265
#	27965
#	47059
#	62448
#	76968
#	94098
#	107765
#	127727
#	142561
#	163644
#	177715
#	192971
#	208892
#	223647
#	235697
#	252703
#	267696
#	284694
#	298404
#	315303
#	329115
#	341101
#
# Disc length: 4728 seconds
#
# Revision: 1
# Processed by: cddbd v1.5.2PL0 Copyright (c) Steve Scherf et al.
# Submitted via: audiograbber 1.83.01
#
DISCID=6a127617
DTITLE=Varius - Diamondback Records Compilation #8
DYEAR=2014
DGENRE=Country
TTITLE0=B. Jeff Stone - Sweet Thang
TTITLE1=Ann Pascoe and Dennis Marsh - My Sweetest Hello
TTITLE2=Ray William Roldan - Legend Of Johnny White Horse
TTITLE3=Marcella Tambouris - Change is comming
TTITLE4=Fraser Newcombe - Most Distinguished Hobo
TTITLE5=Ryan Sommerville - Love Is
TTITLE6=Pecos Red - Let's Talk
TTITLE7=Terry Gorka - Little Girl Lost
TTITLE8=Trevor V. Stevens and Gail Russell - Did I Fall In Love
TTITLE9=Ralph Lambert - Prodigal Son
TTITLE10=Philip Clarkson - Here I Am
TTITLE11=Judy Welden - My Saviors Precious Blod
TTITLE12=Hermann Lammers Meyer - A Song For Sarah
TTITLE13=Mak Kaylor and Julii Maners - You Know How To Turn Me On
TTITLE14=Walter Wiz Walsh - Is It Me You're Talkin' To
TTITLE15=Patricia Welch - The Kiss
TTITLE16=Glenn Erickson - My Kinda' Woman
TTITLE17=Jim Davis - Write Me A Country Song
TTITLE18=Julie Richardson - Cryin' Kind Of Man
TTITLE19=Joe Gillaspie - Steady On
TTITLE20=Larry Gadler - Great Big Corporation
TTITLE21=Peter Frew - You're My Best Friend
TTITLE22=Glenn Erickson - Twilight Of My Tears
EXTD=
EXTT0=
EXTT1=
EXTT2=
EXTT3=
EXTT4=
EXTT5=
EXTT6=
EXTT7=
EXTT8=
EXTT9=
EXTT10=
EXTT11=
EXTT12=
EXTT13=
EXTT14=
EXTT15=
EXTT16=
EXTT17=
EXTT18=
EXTT19=
EXTT20=
EXTT21=
EXTT22=
PLAYORDER=
